<?xml version="1.0" encoding="UTF-8" standalone="no"?>
<!-- Created with Inkscape (http://www.inkscape.org/) -->

<svg
   xmlns:dc="http://purl.org/dc/elements/1.1/"
   xmlns:cc="http://creativecommons.org/ns#"
   xmlns:rdf="http://www.w3.org/1999/02/22-rdf-syntax-ns#"
   xmlns:svg="http://www.w3.org/2000/svg"
   xmlns="http://www.w3.org/2000/svg"
   xmlns:sodipodi="http://sodipodi.sourceforge.net/DTD/sodipodi-0.dtd"
   xmlns:inkscape="http://www.inkscape.org/namespaces/inkscape"
   width="451.38141"
   height="137.84203"
   id="svg2"
   version="1.1"
   inkscape:version="0.48.4 r9939"
   sodipodi:docname="flowers.svg">
  <defs
     id="defs4" />
  <sodipodi:namedview
     id="base"
     pagecolor="#ffffff"
     bordercolor="#666666"
     borderopacity="1.0"
     inkscape:pageopacity="0.0"
     inkscape:pageshadow="2"
     inkscape:zoom="1"
     inkscape:cx="89.63257"
     inkscape:cy="48.848675"
     inkscape:document-units="px"
     inkscape:current-layer="layer1"
     showgrid="false"
     fit-margin-top="0"
     fit-margin-left="0"
     fit-margin-right="0"
     fit-margin-bottom="0"
     inkscape:window-width="1425"
     inkscape:window-height="774"
     inkscape:window-x="125"
     inkscape:window-y="125"
     inkscape:window-maximized="1" />
  <metadata
     id="metadata7">
    <rdf:RDF>
      <cc:Work
         rdf:about="">
        <dc:format>image/svg+xml</dc:format>
        <dc:type
           rdf:resource="http://purl.org/dc/dcmitype/StillImage" />
        <dc:title />
      </cc:Work>
    </rdf:RDF>
  </metadata>
  <g
     inkscape:label="Layer 1"
     inkscape:groupmode="layer"
     id="layer1"
     transform="translate(-129.36743,-511.94026)">
    <path
       style="fill:#777777;fill-opacity:1"
       d="m 180.34416,648.74412 c -9.67014,-3.61653 -17.49442,-10.31672 -22.03887,-18.87261 -2.95942,-5.57174 -3.25083,-18.98786 -0.55531,-25.5653 0.9625,-2.34863 1.75,-4.72276 1.75,-5.27585 0,-0.55309 -3.41263,0.86735 -7.58363,3.15652 -7.70579,4.22919 -21.22197,8.51568 -22.52408,7.14324 -0.7323,-0.77186 14.94088,-15.06846 18.68378,-17.04278 1.14184,-0.6023 5.41684,-1.18776 9.5,-1.30102 7.33725,-0.20352 7.48413,-0.26071 12.57966,-4.89809 6.56663,-5.9762 14.85467,-11.47463 24.24146,-16.0822 l 7.39718,-3.63096 -4.57736,-3.14931 c -2.51755,-1.73212 -4.83378,-3.14931 -5.14719,-3.14931 -0.3134,0 -0.57671,1.4625 -0.58513,3.25 -0.0263,5.59133 -1.04476,6.25966 -6.62492,4.34758 l -4.85977,-1.66523 -2.24503,2.78383 c -1.23477,1.5311 -2.24727,3.05046 -2.25,3.37635 -0.008,0.99323 -6.88274,4.36303 -7.54651,3.69926 -0.34128,-0.34127 -0.13404,-1.52945 0.46052,-2.6404 1.29034,-2.41102 1.35034,-4.17819 0.20331,-5.98776 -0.70006,-1.10442 -1.65811,-1.06102 -5.51964,0.25 -2.5699,0.8725 -6.2045,1.58637 -8.0769,1.58637 l -3.40435,0 1.56024,-4.57906 c 0.87455,-2.56668 1.17748,-4.92977 0.6893,-5.37708 -0.47902,-0.43891 -3.23344,-1.5645 -6.12094,-2.50131 -2.8875,-0.9368 -5.25,-1.88608 -5.25,-2.1095 0,-0.22341 1.5081,-1.03634 3.35134,-1.80649 1.84324,-0.77015 4.3661,-2.82537 5.60636,-4.56716 2.17433,-3.05356 2.19095,-3.23767 0.46445,-5.14542 -0.98481,-1.0882 -3.28547,-2.90246 -5.11259,-4.03168 -1.82711,-1.12921 -3.10891,-2.39794 -2.84845,-2.81938 0.26047,-0.42144 2.62577,-1.56718 5.25623,-2.54608 2.63046,-0.97891 5.15921,-2.11971 5.61945,-2.53512 0.46023,-0.41541 0.0423,-3.27578 -0.9288,-6.35638 -0.97107,-3.08059 -1.50566,-5.861 -1.18798,-6.17868 0.31768,-0.31769 3.31031,0.80185 6.65028,2.48786 3.33997,1.68602 6.70802,3.06548 7.48456,3.06548 1.66202,0 2.61249,-3.00442 2.63149,-8.31809 l 0.0137,-3.8181 3.25,2.29113 c 1.7875,1.26012 4.15,3.42349 5.25,4.8075 3.98497,5.01385 5.51643,6.03756 9.03212,6.03756 3.94733,0 10.46788,2.39053 10.46788,3.83768 0,0.51686 -1.55921,1.23225 -3.46492,1.58976 -5.46381,1.02502 -4.98281,2.24654 1.13317,2.87777 3.08916,0.31883 6.00404,0.96708 6.47752,1.44056 0.48116,0.48116 -0.68437,3.42699 -2.64245,6.6787 -1.92683,3.19981 -3.50332,6.11782 -3.50332,6.48446 0,0.36664 1.33171,2.22462 2.95936,4.12884 3.59148,4.20177 3.64466,4.56173 0.79064,5.35194 l -2.25,0.62297 2.5,1.95907 c 5.29112,4.14627 7.47815,4.46955 17.33029,2.56173 5.04334,-0.97662 13.95311,-2.00734 19.79949,-2.29049 20.44766,-0.99032 34.34345,3.58824 53.93592,17.7715 4.87879,3.53182 6.73006,4.20892 15,5.48626 10.28803,1.58904 15.85129,3.11738 23.80972,6.541 2.85199,1.2269 5.48759,1.92857 5.85688,1.55928 0.36929,-0.36928 -0.99441,-4.03804 -3.03043,-8.15277 -2.03603,-4.11474 -3.70187,-7.65172 -3.70187,-7.85994 0,-0.20823 2.74009,0.47421 6.08909,1.51654 3.34901,1.04233 6.42778,1.89514 6.84172,1.89514 0.41394,0 1.31766,-1.88594 2.00826,-4.19097 0.6906,-2.30503 1.67929,-5.30524 2.19708,-6.66713 l 0.94143,-2.47615 1.61548,2.41712 c 0.88852,1.32942 2.72294,3.91762 4.0765,5.75156 l 2.46101,3.33442 3.50258,-3.33442 c 1.92642,-1.83394 4.07883,-4.66689 4.78312,-6.29545 l 1.28055,-2.96103 1.60159,3.83315 c 0.88087,2.10823 1.60159,4.46732 1.60159,5.24241 0,2.3017 2.84751,2.70977 7.14078,1.02333 l 4.02565,-1.58132 -0.43761,6.20224 c -0.24069,3.41123 -0.79555,7.27184 -1.23303,8.57914 -0.75117,2.24465 -0.60627,2.34924 2.60439,1.87979 1.8699,-0.27341 7.11099,-1.65638 11.64688,-3.07327 4.53588,-1.41689 11.73588,-3.05739 16,-3.64556 6.00022,-0.82763 8.65722,-1.74329 11.75294,-4.05032 9.13192,-6.80541 18.80717,-12.25002 27.14256,-15.27408 8.50582,-3.08589 9.4529,-3.21279 23.85744,-3.19672 10.57263,0.0118 17.82396,0.57232 24.56761,1.89904 l 9.56761,1.8823 4.68239,-2.74406 c 2.57531,-1.50923 4.68239,-2.93744 4.68239,-3.17379 0,-0.23635 -1.08904,-0.84378 -2.42008,-1.34984 l -2.42008,-0.92012 3.42008,-3.62634 c 1.88104,-1.99448 3.42008,-3.98977 3.42008,-4.43398 0,-0.4442 -1.575,-3.42319 -3.5,-6.61997 -1.925,-3.19678 -3.5,-6.12381 -3.5,-6.50452 0,-1.04008 3.94748,-1.89257 9,-1.94361 4.17515,-0.0422 4.35987,-0.15144 2.55887,-1.51365 -1.06762,-0.80751 -3.26022,-1.4682 -4.87244,-1.4682 -2.44624,0 -2.73234,-0.23976 -1.72888,-1.44885 1.59265,-1.91903 6.59183,-3.50871 11.65844,-3.70723 3.46578,-0.13581 4.36621,-0.63874 5.82272,-3.25228 1.75059,-3.14124 6.05557,-7.07661 8.96077,-8.19144 1.29944,-0.49864 1.60052,0.12246 1.60052,3.30168 0,2.15372 0.60979,4.7498 1.35509,5.76906 1.3004,1.7784 1.62781,1.72557 8.11227,-1.30887 3.71646,-1.73914 7.13243,-3.16207 7.59105,-3.16207 0.45863,0 -0.0419,2.54545 -1.11227,5.65655 -2.39678,6.96636 -2.42893,8.33739 -0.19614,8.36541 0.9625,0.0121 3.723,0.91717 6.13444,2.0113 l 4.38444,1.98934 -3.88444,2.82198 c -6.45847,4.69196 -7.03945,5.79291 -4.72382,8.9516 1.09019,1.4871 3.42166,3.35145 5.18105,4.143 1.75938,0.79155 3.04955,1.88716 2.86704,2.4347 -0.18252,0.54754 -2.66664,1.64504 -5.52028,2.4389 -2.85364,0.79385 -5.18843,1.77916 -5.18843,2.18957 0,0.41041 0.675,2.65935 1.5,4.99765 0.825,2.3383 1.5,4.48283 1.5,4.76563 0,1.04849 -10.87988,-0.65215 -13.78582,-2.15487 -2.91514,-1.50748 -3.02982,-1.48146 -3.60706,0.81845 -0.3279,1.30649 -0.32319,3.74045 0.0105,5.40882 0.54425,2.72129 0.38815,2.97624 -1.51732,2.47794 -2.03425,-0.53196 -6.02263,-4.56789 -7.9924,-8.08766 -0.86954,-1.55378 -1.28882,-1.5522 -6.2161,0.0235 -2.90602,0.92931 -5.45151,1.52181 -5.65665,1.31668 -0.20513,-0.20514 -0.67946,-2.4104 -1.05406,-4.90059 l -0.68109,-4.52762 -4.914,3.64716 -4.91401,3.64715 5.09692,2.23382 c 7.28298,3.19188 20.90541,11.89197 26.58924,16.98146 5.21618,4.67073 5.07575,4.61635 11.29385,4.37338 7.85552,-0.30696 12.09496,1.81524 21.27497,10.6499 8.55298,8.23122 8.56545,8.25061 5.33355,8.28869 -3.86887,0.0456 -14.62947,-4.09555 -22.26052,-8.5668 -3.025,-1.77243 -5.5915,-3.13241 -5.70332,-3.02216 -0.11183,0.11024 0.93281,3.33047 2.32142,7.15606 6.37725,17.56912 -0.44948,33.34978 -18.19681,42.06372 -4.85328,2.38296 -7.18386,2.90259 -12.92129,2.88096 -8.02157,-0.0302 -11.34902,-1.44972 -18.19865,-7.76348 -10.14893,-9.35496 -12.56,-22.49556 -5.63713,-30.72293 6.5891,-7.83069 15.80815,-9.07822 30.54751,-4.1337 5.10855,1.71373 11.46521,3.38125 14.12591,3.7056 4.78724,0.58359 4.81851,0.61087 3.00122,2.61896 -2.25695,2.4939 -8.96416,6.38495 -12.33886,7.15813 -2.38793,0.54711 -2.48436,0.85268 -2.15117,6.81676 0.19185,3.43419 -0.19268,8.05136 -0.85452,10.26039 l -1.20335,4.01642 -3.66077,-3.96488 c -2.01342,-2.18068 -4.61552,-5.29458 -5.78245,-6.91978 l -2.12169,-2.9549 -3.70805,2.82827 c -2.03943,1.55555 -4.18223,4.18851 -4.76179,5.85102 l -1.05373,3.02274 -1.80933,-3.39612 c -3.05708,-5.73816 -2.16235,-13.74841 2.0548,-18.39611 0.9981,-1.1 2.01519,-3.4625 2.2602,-5.25 0.3733,-2.72353 0.12433,-3.25 -1.53695,-3.25 -3.2875,0 -8.38423,4.68172 -10.16071,9.33335 -2.01669,5.28064 -1.11438,9.74602 3.41142,16.88246 6.93302,10.93223 19.84652,14.10138 31.91693,7.83284 8.27,-4.29487 13.25699,-11.46034 14.64933,-21.04865 0.80128,-5.51795 -1.47717,-17.09795 -4.5488,-23.11884 -4.85868,-9.52381 -20.21947,-22.5262 -32.86123,-27.81593 l -5.42185,-2.26869 -5.8335,2.78816 -5.83349,2.78815 7.85344,3.84809 c 7.07001,3.46422 19.40995,12.95844 18.15726,13.97 -0.275,0.22206 -6.3731,0.1232 -13.55134,-0.21971 -10.05557,-0.48035 -13.76599,-1.04561 -16.16479,-2.46261 -3.28318,-1.93942 -5.28387,-5.22312 -5.28387,-8.6723 0,-1.67889 -0.42476,-1.94259 -2.25,-1.39688 -1.2375,0.36998 -6.85229,1.84921 -12.47732,3.28717 l -10.22731,2.61448 4.42071,4.7261 c 5.13309,5.48769 6.81599,9.07023 8.34901,17.77332 0.61058,3.46636 2.09595,7.89751 3.3008,9.84701 l 2.19066,3.54455 -2.40328,-0.75303 c -4.55023,-1.42575 -11.09567,-6.71297 -14.02103,-11.32577 -3.52391,-5.55664 -5.00052,-10.64476 -5.16825,-17.80886 l -0.12513,-5.34441 -19.80856,0 -19.80856,0 -5.73587,4.61657 c -3.15473,2.53911 -6.04936,4.90161 -6.43252,5.25 -0.38316,0.34839 0.61438,0.72664 2.21677,0.84057 3.65197,0.25964 8.06361,2.46986 14.48575,7.25732 2.75323,2.05243 6.57823,4.56152 8.5,5.57575 l 3.49413,1.84406 -4.5,0.817 c -6.59628,1.19759 -21.39,-0.68187 -26.90006,-3.4175 -3.82519,-1.89912 -4.65124,-2.81132 -4.90451,-5.41598 l -0.30458,-3.13222 -7.04121,2.38222 c -3.87267,1.31021 -7.91759,2.38221 -8.98871,2.38221 -1.63591,0 -1.90057,0.59997 -1.65421,3.75 l 0.29328,3.75 -4.48328,0.5 -4.48328,0.5 -1.01672,5.30783 -1.01672,5.30783 -4,-3.03001 c -2.2,-1.66651 -4.38971,-3.04253 -4.86602,-3.05783 -0.47632,-0.0153 -3.01161,1.54718 -5.63398,3.47218 -2.62237,1.925 -5.24901,3.5 -5.83697,3.5 -1.1873,0 -3.14878,-6.16047 -3.15745,-9.91667 -0.008,-3.34411 -1.28499,-1.7688 -2.62394,3.23622 l -1.11836,4.18045 -1.76731,-4 c -0.97203,-2.2 -1.98547,-5.87419 -2.2521,-8.16487 -0.50208,-4.31343 -1.77793,-5.28951 -6.95577,-5.32148 -1.21655,-0.008 -5.60405,-1.09086 -9.75,-2.40744 -7.06336,-2.24303 -7.5381,-2.27967 -7.5381,-0.58179 0,3.36348 -1.23073,5.05264 -5.13122,7.04252 -4.5068,2.2992 -21.4479,4.22561 -26.86878,3.05531 l -3.5,-0.7556 10.84542,-7.18333 c 5.96498,-3.95082 11.90092,-7.18332 13.19098,-7.18332 4.38505,0 3.46708,-1.78488 -3.29113,-6.39916 l -6.74527,-4.60546 -19,0.003 -19,0.003 -0.0615,6.7497 c -0.0977,10.7337 -5.67692,20.26915 -15.08564,25.78303 -5.93014,3.47529 -6.79391,3.09109 -4.00942,-1.78334 1.33528,-2.3375 2.7338,-6.71839 3.10781,-9.73531 0.79462,-6.40969 4.37158,-13.48144 9.1729,-18.13506 l 3.40339,-3.29869 -12.26379,-3.25734 c -6.74504,-1.7915 -12.37625,-3.27221 -12.51375,-3.29043 -0.1375,-0.0182 -0.25,1.25115 -0.25,2.82084 0,3.78824 -3.8321,7.77143 -8.63877,8.97938 -2.12368,0.5337 -8.95909,1.2101 -15.1898,1.50313 l -11.32857,0.53278 1.4277,-2.18464 c 2.13756,-3.27086 10.22336,-9.11984 17.53777,-12.68621 l 6.48855,-3.16369 -2.89119,-1.8966 c -7.02138,-4.60596 -7.58222,-4.58733 -18.03198,0.59875 -7.73132,3.83695 -11.24914,6.37311 -17.85268,12.87084 -12.15534,11.96055 -15.93016,21.63381 -14.37625,36.84023 0.84041,8.22409 3.23159,12.38986 9.93748,17.31244 13.89522,10.20002 30.08037,6.97517 37.34369,-7.44065 3.62491,-7.19451 3.99158,-10.38742 1.76971,-15.41033 -1.81094,-4.09393 -7.14412,-8.70941 -10.06369,-8.70941 -1.97021,0 -1.29616,6.54143 0.87667,8.50781 4.51215,4.08345 5.04447,15.2524 0.97666,20.49219 l -1.94083,2.5 -0.0222,-3.16597 c -0.0175,-2.4938 -0.88472,-3.84907 -4.08462,-6.38344 l -4.06238,-3.21747 -1.65402,2.38344 c -0.90971,1.31089 -3.32908,4.18344 -5.37637,6.38344 -5.11524,5.49678 -6.34484,4.12205 -6.34484,-7.09369 0,-8.23376 -0.0765,-8.51201 -2.5,-9.0919 -4.06954,-0.97377 -9.32883,-3.93638 -11.92431,-6.71709 l -2.42432,-2.59732 3.79767,0 c 2.08871,0 8.50448,-1.575 14.25726,-3.5 14.03298,-4.69573 20.20756,-4.75313 26.89187,-0.25 6.29744,4.24251 8.54469,8.21562 8.54469,15.10697 0,9.32807 -7.08475,20.02192 -16.41974,24.78428 -5.19721,2.65142 -14.88232,3.3951 -19.87894,1.52642 z m 7.38897,-19.24679 c 3.52577,-5.05794 4.1455,-10.7937 1.21167,-11.21429 -3.29589,-0.4725 -5.37763,2.85719 -6.09854,9.75448 -0.77775,7.44108 0.45978,7.81075 4.88687,1.45981 z m 340.56232,-1.57174 c -0.37539,-5.18973 -0.87871,-6.52399 -3.22102,-8.53876 -2.17854,-1.8739 -3.07728,-2.13795 -4.17528,-1.2267 -2.62807,2.1811 -1.60934,6.11845 3.2772,12.66632 3.63736,4.87398 4.63087,4.1743 4.1191,-2.90086 z m -14.40333,-1.90332 c 2.94712,-3.50246 3.37744,-6.71327 1.02093,-7.61755 -2.554,-0.98006 -6.48297,3.77399 -7.1347,8.63297 -0.54369,4.0535 -0.47049,4.21195 1.46683,3.17512 1.12149,-0.6002 3.21261,-2.48595 4.64694,-4.19054 z m -310.39214,2.57442 c 0,-3.03687 -3.25358,-9.46595 -5.08454,-10.04707 -2.85126,-0.90496 -4.16443,0.39317 -3.42516,3.38592 1.2322,4.98832 8.5097,10.68493 8.5097,6.66115 z m 150.41244,-10.42884 c 2.31451,-2.41583 2.66907,-3.4438 2.09279,-6.06757 -0.80613,-3.67031 -2.50459,-4.62973 -5.42709,-3.06565 -1.55645,0.83299 -2.07814,2.08697 -2.07814,4.99522 0,4.17379 0.78272,7.0466 1.9199,7.0466 0.38825,0 1.9599,-1.30887 3.49254,-2.9086 z m -170.3467,-2.12658 c 2.403,-1.28605 2.77358,-6.50088 0.39717,-5.58896 -0.84539,0.32441 -4.10789,1.3442 -7.25,2.26621 l -5.71291,1.67639 3,1.29566 c 3.68872,1.59312 7.0163,1.71511 9.56574,0.3507 z m 183.52331,-4.00508 c -0.71615,-5.3986 -2.41174,-9.95974 -3.70251,-9.95974 -1.90293,0 -5.88654,2.43313 -5.88654,3.59542 0,4.05037 5.7189,11.40458 8.86861,11.40458 1.09011,0 1.24516,-1.08473 0.72044,-5.04026 z m 169.00869,4.0031 c 3.32527,-1.26427 2.46495,-2.17902 -4.09415,-4.35319 -4.72208,-1.56524 -5.06775,-1.55881 -6.29581,0.11709 -1.11029,1.51517 -0.98553,2.02797 0.85719,3.52326 2.45066,1.98862 5.56473,2.22148 9.53277,0.71284 z M 350.69215,604.82516 c 1.76524,-0.61618 -1.85375,-4.74871 -4.1586,-4.74871 -3.16739,0 -6.03357,3.81567 -6.03357,8.03235 l 0,3.95444 4.44217,-3.39079 c 2.44319,-1.86493 5.03069,-3.59621 5.75,-3.84729 z m 24.11293,4.68771 c 1.19213,-0.45747 1.27009,-1.21063 0.414,-4 -1.04743,-3.41284 -2.10257,-3.99397 -5.13731,-2.82943 -1.84491,0.70796 -1.92638,1.35646 -0.60654,4.82791 0.96349,2.53416 2.46873,3.09943 5.32985,2.00152 z m -34.40641,-9.82858 2.24732,-2.39216 -2.22437,-1.55802 c -1.98308,-1.389 -2.60918,-1.39723 -5.77164,-0.0759 -4.82286,2.01511 -4.82746,2.03492 -1.01278,4.36057 4.18078,2.54886 4.04642,2.5555 6.76147,-0.33453 z m 50.55923,-1.52926 c 3.32314,-1.51403 8.74208,-4.50885 12.04208,-6.65515 7.41037,-4.81966 5.63145,-5.50225 -6.48232,-2.4873 -7.59888,1.89125 -8.63272,2.46875 -13.77675,7.69563 l -5.56137,5.65094 3.86814,-0.72567 c 2.12747,-0.39912 6.58707,-1.96442 9.91022,-3.47845 z m -62.45792,2.32915 c 0,-0.32575 -0.92831,-1.77243 -2.06292,-3.21484 -1.95685,-2.48774 -1.9697,-2.65729 -0.25,-3.2976 1.56104,-0.58124 1.427,-0.82729 -0.96479,-1.77094 -5.03043,-1.98471 -18.93119,-5.23665 -21.06323,-4.92753 -1.63468,0.237 -0.66829,1.22841 4.42732,4.54191 3.58514,2.33129 9.19486,5.34977 12.46603,6.70773 6.29016,2.61121 7.44759,2.91601 7.44759,1.96127 z m 47.53212,-2.8567 c 5.58549,-2.33377 4.63697,-3.61698 -3.77555,-5.10777 -5.50057,-0.97476 -8.75657,0.10695 -8.75657,2.90913 0,1.27285 0.3,2.61428 0.66667,2.98094 1.17966,1.17966 8.29212,0.71073 11.86545,-0.7823 z m -26.97935,-5.65307 c 1.52991,-2.95853 1.50132,-3.21148 -0.61795,-5.46734 -2.26629,-2.41236 -11.57985,-6.11892 -12.66029,-5.03848 -1.64301,1.64301 7.79549,13.60786 10.73459,13.60786 0.51673,0 1.66138,-1.39592 2.54365,-3.10204 z m 15.14079,-5.91014 c 1.69669,-4.95807 1.66343,-11.98782 -0.0567,-11.98782 -1.96803,0 -10.63684,9.5763 -10.63684,11.75036 0,1.18398 1.15423,2.21832 3.25,2.91241 4.86635,1.61168 6.13233,1.15674 7.44356,-2.67495 z m 9.74974,-0.21033 c 1.33288,-1.90295 2.24375,-7.77749 1.20592,-7.77749 -2.22986,0 -6.65218,2.5539 -6.66287,3.84783 -0.008,0.90869 -0.285,2.66467 -0.61664,3.90217 -0.51036,1.90441 -0.20978,2.25 1.95695,2.25 1.51174,0 3.19734,-0.91003 4.11664,-2.22251 z m -88.66632,-4.94655 c -0.75554,-2.26662 -17.3865,-10.7626 -26.27698,-13.42368 -7.8861,-2.36046 -10.79462,-2.70402 -23.5,-2.77591 -9.37253,-0.053 -16.08864,0.38798 -18.99254,1.24715 l -4.49254,1.32921 3.49254,1.78536 c 6.53446,3.34038 20.50477,7.78289 31.01273,9.86193 13.08525,2.58898 14.97187,2.78788 28.31314,2.98496 7.88115,0.11643 10.72714,-0.15854 10.44365,-1.00902 z m 66.4971,-0.0809 c 0.48013,-1.3617 -2.89954,-6.75 -4.23377,-6.75 -0.45292,0 -1.12966,1.21986 -1.50386,2.7108 -0.49959,1.99052 -0.2119,3.05335 1.08272,4 2.23148,1.6317 4.08789,1.64733 4.65491,0.0392 z m 109.66679,-1.21282 c 10.07962,-1.80416 22.00696,-5.55525 30.99993,-9.74933 l 6.5592,-3.05903 -3.5,-0.84952 c -6.61163,-1.60476 -21.5096,-2.11921 -30.196,-1.04271 -11.12156,1.37829 -21.50764,4.8837 -32.27846,10.89434 -8.53873,4.76502 -8.54322,4.76966 -5.28577,5.45755 4.8272,1.01938 24.03976,0.078 33.7011,-1.6513 z M 175.46784,566.15404 c 1.51576,-3.65936 1.69921,-11.81052 0.29736,-13.21237 -0.57903,-0.57903 -1.88808,-0.89434 -2.909,-0.70068 -2.36923,0.4494 -2.99432,6.48473 -1.29884,12.54039 1.41458,5.05241 2.26293,5.35019 3.91048,1.37266 z m 364.95606,-8.26857 c 0.0822,-5.06842 -0.82511,-6.29254 -3.93287,-5.30618 -1.68183,0.53379 -1.99105,1.51875 -1.99105,6.34204 0,3.73426 0.58265,6.54196 1.68384,8.11413 l 1.68384,2.40401 1.24008,-3.43151 c 0.68205,-1.88733 1.27432,-5.54245 1.31616,-8.12249 z m -378.62426,6.55145 c 3.75494,-1.92365 4.66421,-3.0891 4.68503,-6.00497 0.0147,-2.0522 -0.16673,-2.09075 -4.21424,-0.89566 -3.04723,0.89974 -4.41705,1.91851 -4.90032,3.6445 -1.52913,5.46129 -0.84975,5.9607 4.42953,3.25613 z m 392.23799,-2.11047 c -0.88721,-3.59234 -1.33938,-3.96605 -5.78765,-4.78347 -3.34865,-0.61536 -3.75,-0.46732 -3.75,1.38322 0,2.91654 3.83665,6.15025 7.29697,6.15025 2.68327,0 2.86482,-0.22282 2.24068,-2.75 z M 187.85059,561.8437 c 0.72035,-2.75462 -0.0109,-3.50117 -3.85061,-3.93124 -2.47575,-0.27729 -3.05598,0.0583 -3.32036,1.92019 -0.22696,1.59836 0.35618,2.52747 2,3.18661 3.60479,1.44545 4.54124,1.23256 5.17097,-1.17556 z m 340.08429,1.2575 c 1.81863,-0.69144 2.5651,-1.70998 2.5651,-3.5 0,-2.84646 -0.42232,-2.97069 -4.85078,-1.42692 -2.94932,1.02813 -4.1525,3.56555 -2.48255,5.2355 0.89681,0.89681 1.7416,0.84214 4.76823,-0.30858 z m -362.23394,-10.65872 2.70097,-1.36667 -1.89727,-4.24968 c -1.04349,-2.33732 -2.51481,-4.37946 -3.26959,-4.53807 -0.75478,-0.15862 -3.81645,2.29602 -6.8037,5.45476 -5.3701,5.67838 -5.40317,5.75099 -2.93137,6.43615 3.09934,0.85911 8.6257,0.0726 12.20096,-1.73649 z m 28.14951,-0.34987 c -1.82884,-3.09598 -6.72694,-6.01616 -10.09108,-6.01616 -1.56753,0 -4.25939,3.48546 -4.25939,5.51512 0,1.4035 6.297,3.41082 10.80654,3.44484 l 5.30653,0.04 -1.7626,-2.98384 z m 332.02179,2.03772 c 5.31503,-1.23314 6.30687,-2.41639 4.63855,-5.53367 -1.63337,-3.05199 -5.27726,-3.32043 -9.27643,-0.68338 -2.80329,1.84848 -5.64451,5.04374 -5.70258,6.41317 -0.043,1.01366 5.58631,0.90689 10.34046,-0.19612 z m 33.44305,-0.53586 c 0.7775,-0.77749 -9.93998,-11.51802 -11.49331,-11.51802 -0.68548,0 -2.08665,1.9125 -3.11373,4.25 -1.82784,4.15996 -1.82718,4.2787 0.0309,5.60488 3.89352,2.77886 12.48059,3.75865 14.5761,1.66314 z M 195.7718,540.92628 c 2.65618,-3.57397 1.54259,-4.84983 -4.23301,-4.84983 -4.49833,0 -4.91875,0.21684 -5.90486,3.04559 -0.94652,2.71521 -0.82154,3.14464 1.15218,3.95871 3.57613,1.47498 6.87635,0.6837 8.98569,-2.15447 z m 330.02605,1.22448 c 0.43884,-0.42353 0.24468,-1.9842 -0.43145,-3.46815 -1.12811,-2.47593 -1.64022,-2.67372 -6.21928,-2.40213 -2.74446,0.16278 -5.14994,0.78236 -5.34549,1.37684 -0.19556,0.59448 0.61936,2.32028 1.81092,3.83512 1.89006,2.40281 2.62717,2.66965 5.77696,2.09131 1.98576,-0.36461 3.96951,-1.00946 4.40834,-1.43299 z m -367.25262,-1.62884 c 2.00713,-2.41844 -1.9177,-5.94528 -5.59038,-5.0235 l -2.72709,0.68446 2.8232,2.94678 c 3.2478,3.38997 3.73406,3.51319 5.49427,1.39226 z m 401.46541,-3.46271 c 0.31412,-0.50827 -0.61321,-1.22138 -2.06074,-1.58469 -3.56829,-0.89558 -7.46748,2.67091 -5.50513,5.0354 1.14344,1.37776 1.58538,1.32521 4.13745,-0.49203 1.5715,-1.11901 3.11429,-2.45042 3.42842,-2.95868 z m -375.31615,-3.01582 2.69452,-5.96694 -2.22201,0 c -2.69349,0 -6.25882,2.36874 -7.74496,5.14563 -0.89312,1.66882 -0.67943,2.48374 1.16658,4.44872 1.24299,1.32311 2.51905,2.39077 2.83567,2.37259 0.31663,-0.0182 1.78822,-2.71818 3.2702,-6 z m 347.63618,3.52117 c 3.50107,-4.45088 0.038,-9.48811 -6.52306,-9.48811 l -3.24736,0 2.49521,3.6769 c 1.37237,2.02229 2.75759,4.72229 3.07827,6 0.74707,2.97654 1.74231,2.93177 4.19694,-0.18879 z m -360.40238,-2.37211 c 1.05086,-1.70032 -12.58363,-12.29402 -13.99997,-10.87767 -0.21219,0.21219 0.34851,2.96709 1.24601,6.122 1.99815,7.02399 5.09936,9.32517 9.5002,7.04941 1.48424,-0.76754 2.94844,-1.79972 3.25376,-2.29374 z m 375.86067,1.87133 c 2.40057,-1.88829 6.52062,-11.51106 5.40583,-12.62585 -0.65143,-0.65144 -6.28157,2.19155 -10.31574,5.20902 -3.3301,2.49084 -5.11145,6.4295 -2.9079,6.4295 0.70617,0 1.84414,0.675 2.52883,1.5 1.62259,1.9551 2.22609,1.8966 5.28898,-0.51267 z m -369.9854,-11.04021 c 0.4828,-1.84624 -2.61414,-6.94712 -4.21787,-6.94712 -0.42303,0 -1.32128,1.8429 -1.99613,4.09534 -1.07147,3.57624 -1.00758,4.33779 0.50403,6.0081 1.58113,1.74713 1.88151,1.77656 3.46901,0.33989 0.95589,-0.86507 1.96432,-2.43837 2.24096,-3.49621 z m 361.02502,2.67412 c 1.26985,-1.93803 1.35271,-3.04967 0.44723,-6 -0.61127,-1.99168 -1.46037,-3.62124 -1.88691,-3.62124 -1.15675,0 -3.88892,4.21532 -3.88892,6 0,1.40255 2.63717,6 3.44169,6 0.18056,0 1.02967,-1.07044 1.88691,-2.37876 z m -259.81492,40.21086 c -4.50073,-3.54027 -5.51771,-7.4495 -5.47613,-21.04998 l 0.0375,-12.28212 3.45616,4 c 1.90088,2.2 5.25899,7.6168 7.46245,12.03734 4.5235,9.07492 5.25122,15.02605 2.17756,17.80767 -2.44548,2.21313 -4.35454,2.08526 -7.65758,-0.51291 z m 144.88408,-0.3478 c -1.2195,-1.86118 -1.4729,-3.61735 -0.97399,-6.75 0.86928,-5.45819 6.74797,-17.19019 11.15883,-22.26947 l 3.44306,-3.96483 -0.26283,14.32941 -0.26283,14.3294 -3.73531,3.4206 c -4.43956,4.0655 -7.12598,4.32502 -9.36693,0.90489 z"
       id="path2996"
       inkscape:connector-curvature="0" />
  </g>
</svg>
